<svg width="36" height="36" viewBox="0 0 36 36" fill="none" xmlns="http://www.w3.org/2000/svg">
<g id="nstagram">
<g id="Vector">
<path d="M17.9986 11.0658C16.159 11.0658 14.3948 11.7966 13.0941 13.0973C11.7933 14.3981 11.0626 16.1623 11.0626 18.0018C11.0626 19.8414 11.7933 21.6056 13.0941 22.9063C14.3948 24.2071 16.159 24.9378 17.9986 24.9378C19.8381 24.9378 21.6023 24.2071 22.903 22.9063C24.2038 21.6056 24.9346 19.8414 24.9346 18.0018C24.9346 16.1623 24.2038 14.3981 22.903 13.0973C21.6023 11.7966 19.8381 11.0658 17.9986 11.0658ZM17.9986 22.5063C16.8035 22.5063 15.6574 22.0316 14.8123 21.1865C13.9673 20.3415 13.4926 19.1954 13.4926 18.0003C13.4926 16.8052 13.9673 15.6591 14.8123 14.8141C15.6574 13.969 16.8035 13.4943 17.9986 13.4943C19.1936 13.4943 20.3397 13.969 21.1848 14.8141C22.0298 15.6591 22.5046 16.8052 22.5046 18.0003C22.5046 19.1954 22.0298 20.3415 21.1848 21.1865C20.3397 22.0316 19.1936 22.5063 17.9986 22.5063Z" fill="white"/>
<path d="M25.2091 12.4278C26.1021 12.4278 26.8261 11.7039 26.8261 10.8108C26.8261 9.91777 26.1021 9.19381 25.2091 9.19381C24.316 9.19381 23.5921 9.91777 23.5921 10.8108C23.5921 11.7039 24.316 12.4278 25.2091 12.4278Z" fill="white"/>
<path d="M30.7996 9.16681C30.4523 8.27008 29.9216 7.45574 29.2416 6.7759C28.5615 6.09607 27.7469 5.56572 26.8501 5.21881C25.8006 4.82485 24.6918 4.61182 23.5711 4.58881C22.1266 4.52581 21.6691 4.50781 18.0061 4.50781C14.3431 4.50781 13.8736 4.50781 12.4411 4.58881C11.3211 4.61065 10.2132 4.82371 9.16505 5.21881C8.26796 5.56531 7.4532 6.09552 6.77305 6.77541C6.09291 7.45529 5.56239 8.26985 5.21555 9.16681C4.82151 10.2162 4.60897 11.3251 4.58705 12.4458C4.52255 13.8888 4.50305 14.3463 4.50305 18.0108C4.50305 21.6738 4.50305 22.1403 4.58705 23.5758C4.60955 24.6978 4.82105 25.8048 5.21555 26.8563C5.56337 27.753 6.0944 28.5672 6.77471 29.247C7.45502 29.9268 8.26965 30.4572 9.16655 30.8043C10.2127 31.2141 11.3211 31.4424 12.4441 31.4793C13.8886 31.5423 14.3461 31.5618 18.0091 31.5618C21.6721 31.5618 22.1416 31.5618 23.5741 31.4793C24.6947 31.4565 25.8034 31.244 26.8531 30.8508C27.7497 30.5031 28.564 29.9723 29.244 29.2923C29.924 28.6123 30.4548 27.7979 30.8026 26.9013C31.1971 25.8513 31.4086 24.7443 31.4311 23.6223C31.4956 22.1793 31.5151 21.7218 31.5151 18.0573C31.5151 14.3928 31.5151 13.9278 31.4311 12.4923C31.4136 11.3557 31.2 10.2307 30.7996 9.16681ZM28.9726 23.4648C28.9629 24.3293 28.8051 25.1857 28.5061 25.9968C28.2808 26.5801 27.9359 27.1098 27.4937 27.5518C27.0514 27.9938 26.5215 28.3384 25.9381 28.5633C25.1359 28.861 24.2886 29.0188 23.4331 29.0298C22.0081 29.0958 21.6061 29.1123 17.9521 29.1123C14.2951 29.1123 13.9216 29.1123 12.4696 29.0298C11.6144 29.0193 10.7675 28.8615 9.96605 28.5633C9.38058 28.3398 8.84855 27.9959 8.40439 27.5538C7.96022 27.1117 7.6138 26.5812 7.38755 25.9968C7.09272 25.1944 6.93502 24.3481 6.92105 23.4933C6.85655 22.0683 6.84155 21.6663 6.84155 18.0123C6.84155 14.3568 6.84155 13.9833 6.92105 12.5298C6.93075 11.6658 7.08853 10.8099 7.38755 9.99931C7.84505 8.81581 8.78255 7.88431 9.96605 7.43131C10.7679 7.13452 11.6146 6.97676 12.4696 6.96481C13.8961 6.90031 14.2966 6.88231 17.9521 6.88231C21.6076 6.88231 21.9826 6.88231 23.4331 6.96481C24.2887 6.97511 25.1361 7.13292 25.9381 7.43131C26.5214 7.65672 27.0513 8.00162 27.4935 8.44386C27.9358 8.8861 28.2806 9.41592 28.5061 9.99931C28.8009 10.8017 28.9586 11.6481 28.9726 12.5028C29.0371 13.9293 29.0536 14.3298 29.0536 17.9853C29.0536 21.6393 29.0536 22.0323 28.9891 23.4663H28.9726V23.4648Z" fill="white"/>
</g>
</g>
</svg>
