<svg width="34" height="34" viewBox="0 0 34 34" fill="none" xmlns="http://www.w3.org/2000/svg">
<g id="Group">
<path id="Vector" d="M17.0001 0.908203C7.88856 0.908203 0.5 8.29539 0.5 17.4083C0.5 24.6985 5.22779 30.8835 11.7838 33.0653C12.6084 33.218 12.9112 32.7073 12.9112 32.2715C12.9112 31.8781 12.8959 30.5783 12.8888 29.1995C8.29841 30.1977 7.32979 27.2527 7.32979 27.2527C6.57921 25.3456 5.49775 24.8384 5.49775 24.8384C4.00069 23.8143 5.61059 23.8354 5.61059 23.8354C7.26749 23.9518 8.13993 25.5357 8.13993 25.5357C9.61158 28.0582 11.9999 27.329 12.9415 26.9074C13.0896 25.8409 13.5172 25.113 13.9891 24.701C10.3242 24.2838 6.47156 22.8689 6.47156 16.5466C6.47156 14.7451 7.11612 13.2732 8.17163 12.1177C8.00031 11.7021 7.43553 10.0239 8.33147 7.75111C8.33147 7.75111 9.71705 7.30765 12.8702 9.44244C14.1864 9.07685 15.5979 8.89351 17.0001 8.88722C18.4024 8.89351 19.815 9.07685 21.1336 9.44244C24.283 7.30765 25.6666 7.75111 25.6666 7.75111C26.5647 10.0239 25.9997 11.7021 25.8284 12.1177C26.8863 13.2732 27.5265 14.7451 27.5265 16.5466C27.5265 22.884 23.6665 24.2794 19.9923 24.6879C20.5842 25.1999 21.1115 26.2041 21.1115 27.7435C21.1115 29.9512 21.0924 31.7281 21.0924 32.2715C21.0924 32.7106 21.3894 33.2251 22.2258 33.0631C28.7782 30.8788 33.5 24.6961 33.5 17.4083C33.5 8.29539 26.1125 0.908203 17.0001 0.908203ZM6.67984 24.413C6.6435 24.495 6.51453 24.5196 6.39704 24.4633C6.27736 24.4094 6.21015 24.2977 6.24895 24.2154C6.28447 24.131 6.41371 24.1075 6.53311 24.1641C6.65306 24.2179 6.72137 24.3308 6.67984 24.413ZM7.49146 25.1372C7.41277 25.2101 7.25894 25.1763 7.15456 25.061C7.04663 24.9459 7.02641 24.7921 7.1062 24.7181C7.18735 24.6451 7.33654 24.6793 7.44474 24.7943C7.55267 24.9107 7.57371 25.0634 7.49146 25.1372ZM8.04827 26.0638C7.94717 26.134 7.78186 26.0682 7.67967 25.9214C7.57857 25.7747 7.57857 25.5987 7.68186 25.5282C7.78432 25.4578 7.94717 25.5211 8.05072 25.6668C8.15155 25.816 8.15155 25.9919 8.04827 26.0638ZM8.98994 27.1369C8.8995 27.2366 8.70687 27.2099 8.56588 27.0738C8.42161 26.9407 8.38145 26.7519 8.47216 26.6522C8.56369 26.5522 8.75742 26.5803 8.8995 26.7153C9.04268 26.8481 9.08639 27.0383 8.98994 27.1369ZM10.207 27.4992C10.1671 27.6284 9.98155 27.6872 9.79465 27.6322C9.60803 27.5757 9.4859 27.4243 9.5236 27.2937C9.5624 27.1637 9.74875 27.1024 9.93701 27.1612C10.1234 27.2175 10.2458 27.3678 10.207 27.4992ZM11.592 27.6529C11.5966 27.7889 11.4382 27.9018 11.242 27.9042C11.0447 27.9086 10.8851 27.7985 10.8829 27.6646C10.8829 27.5272 11.0379 27.4154 11.2351 27.4121C11.4313 27.4083 11.592 27.5176 11.592 27.6529ZM12.9526 27.6007C12.9761 27.7335 12.8398 27.8698 12.645 27.9062C12.4534 27.9411 12.2761 27.8592 12.2518 27.7275C12.228 27.5914 12.3668 27.4551 12.5581 27.4198C12.7532 27.3859 12.9278 27.4657 12.9526 27.6007Z" fill="white"/>
</g>
</svg>
